<svg width="136" height="24" viewBox="0 0 136 24" fill="none" xmlns="http://www.w3.org/2000/svg">
    <g clip-path="url(#clip0_99_3801)">
        <path
            d="M12 2C6.47 2 2 6.47 2 12C2 17.53 6.47 22 12 22C17.53 22 22 17.53 22 12C22 6.47 17.53 2 12 2ZM12 20C7.59 20 4 16.41 4 12C4 7.59 7.59 4 12 4C16.41 4 20 7.59 20 12C20 16.41 16.41 20 12 20Z"
            fill="#EAB53D" />
    </g>
    <g clip-path="url(#clip1_99_3801)">
        <path
            d="M40 2C34.47 2 30 6.47 30 12C30 17.53 34.47 22 40 22C45.53 22 50 17.53 50 12C50 6.47 45.53 2 40 2ZM40 20C35.59 20 32 16.41 32 12C32 7.59 35.59 4 40 4C44.41 4 48 7.59 48 12C48 16.41 44.41 20 40 20Z"
            fill="#EAB53D" />
    </g>
    <g clip-path="url(#clip2_99_3801)">
        <path
            d="M68 2C62.48 2 58 6.48 58 12C58 17.52 62.48 22 68 22C73.52 22 78 17.52 78 12C78 6.48 73.52 2 68 2Z"
            fill="#EAB53D" />
    </g>
    <g clip-path="url(#clip3_99_3801)">
        <path
            d="M96 2C90.48 2 86 6.48 86 12C86 17.52 90.48 22 96 22C101.52 22 106 17.52 106 12C106 6.48 101.52 2 96 2Z"
            fill="#EAB53D" />
    </g>
    <g clip-path="url(#clip4_99_3801)">
        <path
            d="M124 2C118.48 2 114 6.48 114 12C114 17.52 118.48 22 124 22C129.52 22 134 17.52 134 12C134 6.48 129.52 2 124 2Z"
            fill="#EAB53D" />
    </g>
    <defs>
        <clipPath id="clip0_99_3801">
            <rect width="24" height="24" fill="white" />
        </clipPath>
        <clipPath id="clip1_99_3801">
            <rect width="24" height="24" fill="white" transform="translate(28)" />
        </clipPath>
        <clipPath id="clip2_99_3801">
            <rect width="24" height="24" fill="white" transform="translate(56)" />
        </clipPath>
        <clipPath id="clip3_99_3801">
            <rect width="24" height="24" fill="white" transform="translate(84)" />
        </clipPath>
        <clipPath id="clip4_99_3801">
            <rect width="24" height="24" fill="white" transform="translate(112)" />
        </clipPath>
    </defs>
</svg>
    