<svg width="136" height="24" viewBox="0 0 136 24" fill="none" xmlns="http://www.w3.org/2000/svg">
    <g clip-path="url(#clip0_99_3849)">
        <path
            d="M12 2C6.47 2 2 6.47 2 12C2 17.53 6.47 22 12 22C17.53 22 22 17.53 22 12C22 6.47 17.53 2 12 2ZM12 20C7.59 20 4 16.41 4 12C4 7.59 7.59 4 12 4C16.41 4 20 7.59 20 12C20 16.41 16.41 20 12 20Z"
            fill="#EAB53D" />
    </g>
    <g clip-path="url(#clip1_99_3849)">
        <path
            d="M40 2C34.47 2 30 6.47 30 12C30 17.53 34.47 22 40 22C45.53 22 50 17.53 50 12C50 6.47 45.53 2 40 2ZM40 20C35.59 20 32 16.41 32 12C32 7.59 35.59 4 40 4C44.41 4 48 7.59 48 12C48 16.41 44.41 20 40 20Z"
            fill="#EAB53D" />
    </g>
    <g clip-path="url(#clip2_99_3849)">
        <path
            d="M68 2C62.47 2 58 6.47 58 12C58 17.53 62.47 22 68 22C73.53 22 78 17.53 78 12C78 6.47 73.53 2 68 2ZM68 20C63.59 20 60 16.41 60 12C60 7.59 63.59 4 68 4C72.41 4 76 7.59 76 12C76 16.41 72.41 20 68 20Z"
            fill="#EAB53D" />
    </g>
    <g clip-path="url(#clip3_99_3849)">
        <path
            d="M96 2C90.47 2 86 6.47 86 12C86 17.53 90.47 22 96 22C101.53 22 106 17.53 106 12C106 6.47 101.53 2 96 2ZM96 20C91.59 20 88 16.41 88 12C88 7.59 91.59 4 96 4C100.41 4 104 7.59 104 12C104 16.41 100.41 20 96 20Z"
            fill="#EAB53D" />
    </g>
    <g clip-path="url(#clip4_99_3849)">
        <path
            d="M124 2C118.48 2 114 6.48 114 12C114 17.52 118.48 22 124 22C129.52 22 134 17.52 134 12C134 6.48 129.52 2 124 2Z"
            fill="#EAB53D" />
    </g>
    <defs>
        <clipPath id="clip0_99_3849">
            <rect width="24" height="24" fill="white" />
        </clipPath>
        <clipPath id="clip1_99_3849">
            <rect width="24" height="24" fill="white" transform="translate(28)" />
        </clipPath>
        <clipPath id="clip2_99_3849">
            <rect width="24" height="24" fill="white" transform="translate(56)" />
        </clipPath>
        <clipPath id="clip3_99_3849">
            <rect width="24" height="24" fill="white" transform="translate(84)" />
        </clipPath>
        <clipPath id="clip4_99_3849">
            <rect width="24" height="24" fill="white" transform="translate(112)" />
        </clipPath>
    </defs>
</svg>
    