<?xml version="1.0" standalone="no"?>
<!DOCTYPE svg PUBLIC "-//W3C//DTD SVG 20010904//EN"
 "http://www.w3.org/TR/2001/REC-SVG-20010904/DTD/svg10.dtd">
<svg version="1.0" xmlns="http://www.w3.org/2000/svg"
 width="4000.000000pt" height="4000.000000pt" viewBox="0 0 4000.000000 4000.000000"
 preserveAspectRatio="xMidYMid meet">

<g transform="translate(0.000000,4000.000000) scale(0.100000,-0.100000)"
fill="#000000" stroke="none">
<path d="M20955 36134 c-1583 -47 -2888 -204 -4390 -529 -2987 -646 -6041
-1976 -8510 -3707 -653 -458 -1395 -1048 -1701 -1353 -292 -290 -489 -648
-578 -1047 -73 -330 -135 -829 -150 -1217 -3 -62 -8 -117 -13 -121 -7 -7 -76
-44 -438 -235 -55 -29 -291 -153 -524 -275 -233 -122 -490 -257 -572 -301 -83
-43 -154 -79 -160 -79 -5 0 -23 -7 -39 -15 -52 -27 -88 -109 -116 -268 -14
-75 -18 -204 -24 -712 -8 -665 -10 -698 -57 -716 -30 -11 -244 -41 -533 -74
-255 -29 -439 -64 -535 -100 -182 -68 -266 -179 -251 -333 11 -120 78 -195
209 -233 40 -11 79 -23 87 -26 9 -3 -8 -13 -40 -25 -111 -42 -172 -90 -206
-163 -43 -91 -25 -229 38 -294 37 -38 104 -74 168 -91 87 -22 86 -21 28 -44
-76 -31 -144 -81 -176 -128 -22 -34 -28 -55 -30 -118 -5 -97 10 -151 55 -201
45 -50 93 -75 186 -98 l72 -18 -65 -31 c-133 -63 -189 -137 -190 -248 0 -163
85 -261 256 -289 70 -12 71 -15 7 -47 -131 -64 -183 -136 -183 -249 0 -83 13
-129 53 -180 37 -49 99 -84 177 -99 115 -23 111 -18 47 -52 -71 -39 -129 -88
-158 -135 -19 -30 -23 -52 -23 -108 0 -95 18 -148 66 -201 41 -44 107 -76 184
-89 106 -17 103 -13 38 -50 -72 -41 -141 -106 -160 -151 -31 -74 -10 -212 43
-282 41 -54 161 -102 258 -102 19 0 35 -3 35 -8 0 -4 -24 -22 -54 -40 -71 -42
-143 -122 -157 -175 -20 -73 3 -179 52 -246 40 -57 112 -89 228 -104 l90 -11
-52 -34 c-150 -98 -197 -203 -151 -339 44 -129 119 -178 290 -191 l85 -7 -69
-51 c-124 -93 -160 -179 -127 -301 21 -77 65 -139 121 -170 49 -27 170 -47
238 -39 l51 6 -30 -23 c-64 -48 -128 -114 -153 -156 -70 -119 10 -325 144
-372 25 -9 80 -14 150 -13 l111 0 -73 -71 c-82 -80 -113 -137 -114 -207 0
-105 78 -230 165 -264 38 -14 67 -16 171 -11 l125 5 -51 -51 c-88 -87 -130
-162 -130 -233 0 -102 99 -237 193 -263 56 -16 176 -10 250 13 26 8 47 12 47
10 0 -3 -25 -35 -55 -71 -109 -133 -132 -226 -80 -330 32 -64 110 -138 161
-152 76 -21 201 -4 328 45 13 5 2 -16 -32 -61 -134 -176 -140 -288 -25 -416
93 -103 215 -112 403 -29 38 17 71 30 74 30 3 0 -13 -30 -35 -67 -53 -87 -89
-182 -89 -236 0 -57 38 -134 88 -179 120 -108 228 -106 426 7 44 25 81 45 83
45 2 0 -10 -26 -26 -59 -70 -138 -90 -263 -54 -339 25 -53 87 -110 150 -139
108 -50 220 -20 370 99 41 33 76 58 78 56 2 -2 -7 -35 -20 -74 -39 -113 -50
-204 -35 -271 24 -108 147 -198 270 -198 92 0 144 29 262 144 54 52 98 92 98
90 0 -2 -7 -39 -15 -82 -19 -100 -19 -199 0 -263 42 -140 246 -222 381 -151
55 29 96 70 170 169 l72 98 -1 -113 c0 -142 15 -215 56 -270 62 -82 207 -127
316 -97 67 18 145 102 208 224 l50 99 13 -89 c27 -191 69 -273 167 -320 76
-38 194 -41 259 -7 73 39 137 132 179 263 10 30 20 59 23 64 3 5 16 -29 28
-77 39 -145 91 -229 168 -270 59 -32 212 -31 272 0 89 47 133 133 178 346 1 4
18 -32 39 -80 50 -119 98 -181 166 -215 97 -49 244 -32 320 38 57 51 78 107
106 288 l6 38 45 -78 c81 -142 160 -203 263 -204 50 0 53 -1 48 -22 -3 -13
-35 -178 -71 -368 -36 -190 -155 -824 -266 -1410 -266 -1407 -259 -1368 -270
-1500 -6 -67 -10 -929 -11 -2070 -1 -1075 -5 -1941 -9 -1925 -7 28 -8 29 -10
5 -1 -14 -8 -41 -15 -60 -12 -30 -14 -32 -14 -11 l-1 25 -33 -32 c-18 -18 -42
-32 -53 -32 -10 0 -25 -9 -32 -20 -7 -12 -23 -25 -37 -30 -13 -5 -29 -21 -37
-37 -7 -15 -26 -34 -41 -41 -16 -8 -31 -21 -34 -30 -8 -21 -34 -52 -44 -52 -4
0 -9 7 -11 16 -2 12 -10 8 -32 -15 -23 -24 -26 -31 -13 -31 22 0 22 -13 -1
-33 -23 -21 -30 -21 -34 -1 -2 12 -10 8 -32 -15 -23 -24 -26 -31 -13 -31 24 0
21 -15 -8 -38 -14 -11 -25 -25 -25 -31 0 -6 -7 -11 -15 -11 -11 0 -15 -11 -15
-40 0 -29 -4 -40 -15 -40 -13 0 -15 -25 -15 -163 l0 -163 30 -29 c34 -33 37
-42 13 -47 -15 -3 -15 -4 0 -17 15 -12 17 -11 17 3 0 24 13 20 48 -17 36 -37
39 -47 16 -47 -14 0 -14 -3 -4 -15 7 -8 18 -15 25 -15 8 0 22 -11 33 -25 11
-14 25 -25 31 -25 6 0 11 -4 11 -9 0 -12 59 -71 70 -71 5 0 11 6 13 13 4 8 8
9 14 1 4 -6 15 -14 23 -17 44 -20 76 -46 88 -70 14 -29 28 -35 35 -14 3 8 15
2 36 -18 18 -16 41 -29 51 -27 10 2 25 -7 34 -19 15 -22 66 -46 118 -56 15 -3
33 -11 39 -19 14 -17 39 -18 39 -1 1 6 9 2 19 -10 10 -12 45 -32 77 -43 33
-12 77 -30 99 -39 99 -44 117 -51 126 -46 11 7 70 -12 119 -38 22 -13 36 -15
38 -8 4 13 32 15 32 2 0 -4 28 -18 63 -30 34 -13 80 -31 102 -41 l40 -18 6 27
c4 16 7 19 8 7 1 -12 6 -16 17 -12 8 3 12 2 9 -4 -9 -15 30 -30 79 -30 55 0
84 -9 65 -21 -8 -4 16 -6 51 -4 36 1 56 0 46 -4 -27 -10 -3 -25 25 -16 15 5
25 1 35 -14 9 -12 23 -20 32 -20 15 1 15 2 0 6 -10 2 -18 8 -18 12 0 5 15 3
34 -3 19 -6 30 -14 24 -17 -6 -4 -1 -10 12 -14 15 -5 19 -10 10 -15 -7 -4 0
-7 17 -7 15 0 42 -2 58 -6 17 -4 9 1 -17 10 -26 10 -50 22 -55 27 -5 5 0 6 12
2 11 -4 31 -10 45 -12 14 -3 32 -8 40 -11 8 -4 22 -7 30 -8 39 -2 100 -18 96
-24 -4 -6 40 -10 154 -12 32 -1 33 -1 10 -9 -23 -7 -22 -8 10 -9 20 -1 42 5
49 12 11 10 12 9 6 -2 -6 -11 -2 -12 21 -7 19 5 26 4 19 -2 -5 -6 -19 -12 -30
-14 -11 -3 34 -4 100 -3 66 1 86 0 45 -2 -118 -6 -101 -18 33 -21 67 -2 124
-8 127 -12 10 -16 89 -30 205 -36 66 -4 134 -12 150 -19 31 -14 59 -19 180
-35 39 -5 102 -13 140 -19 39 -6 102 -11 140 -11 42 0 81 -6 99 -15 19 -10 58
-15 117 -15 49 0 89 -4 89 -8 0 -9 144 -27 300 -38 52 -4 98 -11 101 -17 4 -5
77 -12 163 -15 86 -3 156 -8 156 -12 0 -9 183 -28 345 -36 72 -4 132 -11 135
-15 3 -4 93 -11 200 -15 107 -4 197 -11 200 -15 7 -10 422 -39 552 -39 50 0
88 -4 90 -10 2 -7 97 -13 253 -17 138 -3 255 -10 262 -15 6 -5 51 -11 100 -13
48 -3 180 -9 293 -14 113 -6 278 -11 367 -11 101 0 163 -4 165 -10 2 -7 179
-13 518 -17 283 -3 517 -10 520 -14 7 -10 951 -26 2008 -35 435 -4 792 -10
792 -14 0 -4 159 -8 353 -10 1008 -9 2047 -3 2047 11 0 5 93 9 208 9 244 -1
1065 31 1072 40 3 4 129 10 280 14 151 4 277 11 280 15 3 5 88 11 190 15 102
4 214 11 250 16 36 5 95 10 133 10 37 0 67 4 67 9 0 4 70 10 156 13 88 3 159
10 163 16 3 5 67 12 141 15 193 8 413 26 420 36 3 4 56 11 119 14 63 4 117 11
120 16 3 5 77 12 164 16 86 4 157 11 157 16 0 5 36 9 79 9 44 0 81 4 83 10 2
5 38 13 81 16 42 4 77 11 77 15 0 5 26 9 58 9 74 0 335 31 342 41 5 8 136 26
255 36 33 3 66 9 72 15 7 6 43 13 80 16 38 2 70 9 73 13 3 5 39 12 80 15 41 4
77 11 80 15 7 10 127 29 186 29 24 0 60 10 88 25 41 22 56 24 119 20 53 -4 64
-2 44 4 -16 6 -36 7 -45 5 -15 -5 -15 -5 0 5 12 8 30 8 60 1 51 -11 84 -12 48
0 -22 7 -19 8 16 9 26 1 55 10 78 26 20 14 45 25 54 24 10 0 12 -3 5 -6 -7 -2
-13 -8 -13 -12 0 -4 24 0 53 10 28 10 61 19 72 19 20 1 20 1 0 9 -17 7 -16 8
9 13 15 3 44 2 63 -2 20 -5 43 -4 52 1 9 4 35 13 59 19 23 6 40 15 38 19 -3 5
12 16 34 26 37 17 41 17 58 2 24 -22 49 -23 28 -1 -22 21 -20 27 4 14 15 -8
27 -7 49 5 17 8 37 15 46 15 9 0 18 7 21 15 4 10 13 13 24 10 12 -4 20 0 23
12 4 17 5 17 6 1 1 -22 24 -23 41 -3 7 8 21 15 32 15 10 0 32 7 47 14 15 8 37
13 48 10 11 -3 27 1 36 10 8 9 27 16 40 16 14 0 30 7 37 15 7 8 21 15 31 15
17 0 38 8 134 51 22 9 66 27 99 39 32 11 67 31 77 43 10 12 18 16 19 10 0 -18
25 -16 40 2 7 8 21 15 31 15 31 0 89 33 89 50 0 11 15 22 40 30 22 7 47 21 56
32 11 11 31 18 53 18 25 0 40 6 48 19 12 19 49 44 86 57 9 3 17 10 17 15 0 5
5 9 12 9 16 0 68 51 68 67 0 7 5 13 12 13 16 0 68 51 68 67 0 7 5 13 12 13 16
0 68 51 68 67 0 7 5 13 10 13 6 0 10 -4 10 -10 0 -5 7 -10 15 -10 11 0 15 11
15 40 0 29 4 40 15 40 12 0 15 16 15 80 0 47 4 80 10 80 6 0 10 -25 10 -56 0
-49 2 -55 15 -44 22 19 22 340 0 340 -8 0 -15 5 -15 11 0 6 -11 20 -25 31 -21
16 -25 28 -25 69 0 37 -4 49 -15 49 -8 0 -15 6 -15 13 0 7 -9 18 -20 25 -12 7
-25 24 -30 38 -5 13 -18 27 -27 31 -23 8 -53 33 -53 45 0 4 8 8 17 8 13 0 10
7 -12 30 -16 16 -35 30 -42 30 -7 0 -13 3 -13 8 0 4 -10 12 -22 17 -12 6 -26
19 -32 30 -15 26 -28 40 -46 48 -45 21 -76 46 -88 71 -8 15 -24 31 -37 36 -14
5 -30 18 -37 30 -7 11 -18 20 -24 20 -6 0 -14 27 -18 61 -3 34 -6 884 -6 1888
0 1142 -4 1866 -10 1932 -10 101 -30 221 -119 684 -36 191 -272 1437 -406
2145 -30 157 -156 823 -280 1480 -124 657 -257 1359 -295 1560 -38 201 -89
471 -114 600 -25 129 -108 571 -186 982 -77 411 -154 791 -170 845 -199 670
-740 1185 -1425 1357 -186 47 -219 49 -945 56 -633 7 -709 9 -850 29 -341 47
-581 102 -906 208 l-142 46 -42 75 c-78 136 -206 325 -357 522 -110 146 -272
322 -286 313 -6 -3 -7 -1 -4 4 13 20 -344 360 -364 347 -7 -4 -9 -3 -5 4 15
25 -376 315 -653 483 -125 75 -125 76 -138 125 -40 157 -82 561 -59 576 6 4
52 7 102 7 233 0 477 64 809 211 971 432 1535 1091 2056 2400 51 130 53 139
53 230 0 85 -3 102 -30 160 -40 83 -98 148 -177 198 -133 84 -276 106 -677
107 l-275 0 -75 -32 c-90 -39 -174 -103 -215 -164 -369 -543 -721 -933 -991
-1096 -195 -118 -567 -199 -1074 -233 -162 -11 -1206 -4 -1480 9 -295 15 -814
13 -1299 -5 -536 -20 -1226 -15 -1486 10 -417 41 -694 109 -888 220 -240 137
-544 462 -895 956 -64 91 -137 184 -161 208 -50 49 -160 105 -243 123 -68 14
-511 7 -653 -11 -231 -30 -379 -123 -459 -290 -28 -59 -31 -74 -31 -160 0 -91
3 -101 53 -229 194 -490 370 -839 587 -1166 147 -220 258 -358 425 -526 302
-304 616 -517 1040 -707 327 -146 521 -199 760 -208 185 -7 166 9 158 -141 -7
-135 -27 -286 -55 -416 l-16 -77 -111 -66 c-151 -90 -367 -239 -506 -347 -63
-50 -117 -93 -120 -96 -3 -3 -34 -31 -70 -61 -137 -115 -317 -294 -465 -460
-111 -126 -258 -308 -276 -343 -7 -12 -15 -24 -19 -27 -14 -10 -167 -246 -219
-335 l-51 -91 -143 -47 c-309 -101 -561 -159 -917 -209 -130 -19 -216 -21
-840 -28 -588 -6 -710 -9 -790 -24 -766 -137 -1364 -663 -1581 -1389 -16 -56
-81 -374 -144 -707 -328 -1741 -463 -2453 -468 -2455 -1 0 -19 -14 -41 -29
-42 -31 -80 -103 -91 -173 l-7 -42 -30 35 c-17 19 -52 47 -77 62 -39 23 -57
27 -122 27 -65 0 -85 -5 -142 -33 -76 -38 -109 -77 -133 -160 l-16 -53 -39 44
c-71 82 -177 108 -293 73 -80 -24 -121 -58 -156 -130 l-33 -66 -28 40 c-50 68
-100 94 -192 99 -43 2 -98 -2 -122 -9 -55 -15 -119 -69 -147 -123 l-20 -41
-19 36 c-26 50 -92 104 -144 117 -24 6 -72 11 -107 11 -77 0 -154 -34 -196
-86 -15 -19 -30 -34 -33 -34 -4 0 -12 12 -18 28 -33 79 -123 132 -237 140 -86
5 -127 -7 -182 -53 -45 -39 -52 -42 -52 -20 0 30 -40 93 -77 124 -40 34 -144
71 -197 71 -46 0 -99 -17 -139 -45 l-36 -24 -7 37 c-15 87 -77 152 -183 192
-75 29 -129 26 -222 -14 -12 -5 -17 5 -26 53 -14 74 -49 127 -113 170 -85 58
-155 67 -265 36 -19 -6 -20 -1 -20 62 -1 45 -7 79 -18 101 -27 51 -96 112
-156 140 -45 21 -63 24 -115 19 -34 -3 -70 -9 -80 -13 -16 -6 -18 -4 -11 12 5
10 11 49 13 85 4 76 -14 122 -74 189 -64 71 -172 102 -266 77 l-27 -7 19 42
c27 59 27 156 0 209 -30 58 -89 119 -135 140 -28 13 -64 19 -118 19 l-77 0 27
51 c41 78 42 143 6 221 -54 114 -115 158 -235 167 l-77 6 37 59 c33 53 37 66
37 125 0 56 -6 76 -35 129 -53 100 -123 142 -235 142 l-67 0 36 41 c77 91 90
179 42 284 -49 108 -111 152 -227 162 l-70 6 40 41 c79 81 100 176 61 278 -41
109 -115 167 -227 176 -35 2 -63 7 -63 9 0 3 21 26 47 51 80 81 100 160 68
269 -32 108 -116 175 -237 189 l-57 7 55 50 c78 71 97 112 92 201 -8 150 -77
232 -222 263 l-74 16 50 38 c100 74 133 161 105 274 -29 117 -88 174 -208 203
-38 10 -69 20 -69 25 0 4 4 7 9 7 27 0 111 83 136 135 24 49 27 64 22 121 -11
136 -87 226 -216 255 -34 7 -61 16 -60 19 0 3 28 23 62 45 47 32 68 54 90 95
26 50 29 62 24 127 -11 155 -82 230 -251 268 l-30 6 45 25 c74 42 128 102 145
162 27 94 -6 223 -71 281 -31 27 -129 71 -159 71 -32 0 -21 16 35 49 96 57
139 125 139 221 0 131 -70 228 -195 270 l-67 22 53 30 c62 34 102 69 132 118
18 28 22 50 22 115 0 68 -4 89 -29 138 -32 66 -71 97 -166 131 l-60 22 60 29
c114 55 159 122 160 240 0 53 -6 82 -24 120 -28 59 -53 84 -125 123 l-52 29
53 30 c64 37 130 100 153 150 20 41 29 142 45 508 17 398 11 725 -15 891 l-7
40 179 78 c98 43 253 112 346 152 92 41 242 107 335 148 92 40 276 121 408
180 133 58 245 106 248 106 3 0 6 -36 6 -79 0 -112 63 -422 116 -567 14 -39
13 -45 -6 -95 -27 -68 -57 -196 -64 -279 -13 -140 30 -260 137 -378 81 -90 99
-117 276 -416 159 -270 224 -363 326 -474 114 -122 216 -190 357 -241 312
-110 743 -120 1264 -31 1089 188 2719 897 3911 1702 355 240 623 457 884 717
199 200 281 297 389 459 194 291 268 527 241 765 -19 172 -51 276 -191 637
-105 268 -137 368 -150 464 -23 162 -118 282 -296 373 -54 28 -131 61 -170 73
-54 16 -74 27 -82 45 -25 55 -224 298 -329 401 -75 74 -119 126 -131 155 -119
277 24 507 444 718 610 305 1801 568 3969 875 1080 153 2764 365 3180 400 244
21 890 74 1240 101 39 3 95 8 125 10 174 14 481 37 735 55 160 11 319 22 355
25 253 19 1130 70 1390 80 85 3 184 8 220 10 388 24 1466 25 1810 1 861 -60
1293 -200 1422 -464 31 -62 33 -74 33 -167 -1 -119 -13 -161 -69 -229 -23 -28
-62 -87 -88 -131 -56 -96 -188 -368 -188 -388 0 -7 -41 -38 -91 -67 -116 -69
-245 -189 -286 -267 -46 -87 -55 -132 -58 -308 -2 -120 -9 -196 -29 -305 -103
-564 -110 -761 -36 -982 90 -268 379 -581 790 -855 731 -487 1930 -926 3300
-1208 640 -131 1215 -196 1745 -196 591 -1 999 74 1328 243 295 152 426 344
607 893 83 250 129 365 188 469 58 101 77 177 69 279 -8 103 -70 266 -141 369
l-25 37 11 158 c12 190 5 439 -15 508 -8 28 -20 113 -27 190 -22 260 -84 586
-170 900 -95 346 -280 855 -392 1078 -191 381 -483 682 -888 914 -265 152
-676 367 -1000 523 -2560 1230 -5599 2009 -8585 2199 -170 11 -382 23 -470 26
-88 4 -182 8 -210 11 -65 5 -1246 12 -1390 8z m163 -646 c50 1 82 -2 82 -8 0
-6 32 -9 83 -8 137 4 386 -20 432 -42 22 -11 76 -24 119 -30 44 -6 87 -17 96
-25 9 -8 32 -15 50 -15 25 0 43 -9 67 -32 36 -35 41 -48 18 -48 -11 0 -15 -11
-15 -40 0 -29 -4 -40 -15 -40 -8 0 -15 -4 -15 -10 0 -5 -5 -10 -12 -10 -7 0
-25 -12 -40 -27 -22 -21 -28 -36 -28 -70 0 -24 -4 -43 -10 -43 -5 0 -10 7 -10
16 0 14 -3 14 -15 4 -9 -8 -15 -30 -15 -56 0 -34 -4 -44 -16 -44 -13 0 -14 -3
-5 -14 15 -18 10 -20 -59 -35 -30 -7 -71 -16 -90 -22 -19 -5 -62 -11 -95 -14
-33 -2 -103 -11 -155 -19 -155 -25 -229 -35 -340 -47 -58 -6 -118 -15 -135
-20 -16 -5 -66 -11 -110 -14 -44 -3 -118 -12 -165 -20 -47 -8 -117 -16 -157
-19 -39 -4 -82 -10 -95 -15 -13 -5 -96 -14 -183 -20 -229 -17 -251 -19 -345
-30 -47 -5 -110 -12 -140 -16 -30 -3 -86 -10 -125 -15 -38 -5 -144 -14 -235
-20 -91 -6 -194 -15 -230 -21 -57 -8 -200 -22 -340 -34 -25 -2 -115 -11 -200
-20 -85 -8 -189 -18 -230 -21 -41 -3 -78 -8 -82 -10 -3 -2 -69 -7 -145 -10
-76 -3 -151 -9 -168 -14 -16 -5 -64 -12 -105 -15 -41 -3 -97 -9 -123 -14 -27
-4 -87 -7 -133 -5 -46 2 -84 0 -84 -5 0 -4 -100 -11 -222 -15 -123 -4 -259
-11 -303 -16 -44 -5 -117 -11 -162 -14 l-83 -5 0 43 c0 27 -6 48 -15 56 -12
10 -15 10 -15 -4 0 -10 -9 -16 -24 -16 -23 0 -25 5 -28 47 -3 41 -7 50 -31 61
-15 7 -33 22 -40 33 -6 10 -21 19 -33 19 -12 0 -39 19 -62 44 -45 48 -49 56
-29 56 6 0 30 17 52 38 22 21 56 44 75 52 19 8 46 25 59 39 32 34 64 50 115
57 41 7 89 28 114 52 7 6 22 12 33 12 11 0 27 4 37 9 9 6 53 17 97 26 82 17
136 34 145 45 3 4 41 14 85 24 44 9 109 26 145 36 36 11 81 23 100 26 19 3 58
14 85 24 57 21 146 38 237 47 35 3 68 9 73 13 6 4 28 10 50 13 22 3 67 11 100
16 33 6 107 18 165 27 58 8 121 19 140 24 19 5 71 14 115 19 336 40 426 52
465 61 25 5 108 14 186 20 78 5 208 17 290 25 82 8 221 18 309 21 88 3 167 8
175 12 26 10 471 18 760 13 151 -3 312 -4 358 -3z m-558 -2052 c0 -9 5 -16 11
-16 6 0 5 -5 -3 -13 -15 -15 -205 -60 -323 -77 -44 -6 -123 -18 -175 -26 -52
-8 -135 -18 -185 -24 -49 -5 -171 -18 -270 -30 -510 -58 -1085 -86 -1250 -60
-27 4 -40 8 -29 9 12 0 24 7 27 15 3 8 21 17 39 21 62 12 133 27 168 35 175
43 907 129 1315 155 305 19 308 19 508 23 146 3 167 1 167 -12z m10123 -705
c6 -6 24 -11 39 -11 15 0 28 -4 28 -9 0 -13 113 -51 136 -45 12 3 26 -1 33
-10 8 -9 26 -16 42 -16 16 0 29 -4 29 -9 0 -5 29 -19 65 -32 36 -12 65 -26 65
-31 0 -4 7 -8 15 -8 8 0 15 -4 15 -10 0 -5 11 -12 25 -16 14 -3 25 -10 25 -15
0 -5 5 -9 12 -9 7 0 24 -11 38 -25 56 -54 92 -85 101 -85 5 0 9 -4 9 -8 0 -5
18 -17 40 -27 22 -10 40 -24 40 -32 0 -7 6 -13 13 -13 8 0 22 -19 33 -42 10
-24 36 -61 57 -83 21 -22 49 -51 63 -65 13 -14 24 -31 24 -38 0 -7 6 -12 14
-12 7 0 21 -16 30 -35 9 -19 20 -37 25 -39 5 -3 21 -36 36 -73 16 -38 36 -75
46 -84 10 -9 21 -36 25 -60 3 -24 13 -54 20 -66 16 -25 19 -160 4 -183 -6 -9
-5 -17 3 -22 8 -5 5 -14 -11 -31 -12 -13 -22 -28 -22 -33 0 -5 -24 -33 -52
-61 -46 -45 -73 -61 -173 -103 -84 -34 -265 -49 -322 -25 -19 8 -59 15 -87 15
-32 0 -67 8 -91 20 -22 11 -49 20 -60 20 -11 0 -38 9 -60 20 -22 11 -43 20
-48 20 -17 0 -141 63 -161 82 -12 11 -46 33 -76 50 -30 17 -66 40 -79 50 -13
10 -31 18 -40 18 -9 0 -31 14 -50 32 -18 17 -58 41 -89 54 -30 12 -59 29 -64
38 -5 9 -16 16 -24 16 -9 0 -32 17 -53 39 -20 21 -55 48 -77 60 -96 53 -114
65 -114 77 0 6 -8 15 -17 18 -37 14 -62 31 -68 46 -12 30 -30 60 -36 60 -13 0
-69 55 -69 67 0 7 -4 13 -10 13 -5 0 -10 7 -10 15 0 8 -10 23 -22 34 -39 37
-58 114 -58 238 0 74 4 113 11 113 12 0 32 19 42 40 21 44 46 76 69 87 14 7
33 24 42 38 9 14 26 25 37 25 11 0 33 7 48 14 15 8 37 13 48 10 14 -4 29 3 44
20 31 32 57 34 327 31 143 -1 217 -6 225 -14z m-21444 -2220 c29 -10 61 -31
80 -54 18 -20 39 -37 47 -37 8 0 14 -6 14 -13 0 -7 14 -26 30 -42 25 -24 30
-37 30 -76 0 -26 4 -49 10 -51 5 -1 12 -44 16 -93 6 -77 4 -92 -10 -104 -9 -7
-16 -26 -16 -42 0 -16 -4 -29 -9 -29 -5 0 -19 -29 -32 -65 -16 -45 -28 -65
-39 -65 -15 0 -36 -36 -54 -92 -3 -10 -14 -18 -25 -18 -11 0 -23 -9 -26 -21
-9 -28 -136 -155 -164 -164 -11 -3 -21 -13 -21 -21 0 -19 -143 -161 -167 -166
-10 -2 -19 -12 -21 -22 -3 -11 -18 -31 -35 -45 -17 -14 -46 -41 -63 -58 -18
-18 -36 -33 -41 -33 -4 0 -25 -18 -46 -40 -20 -22 -41 -40 -45 -40 -4 0 -26
-18 -47 -40 -21 -22 -47 -40 -57 -40 -10 0 -18 -5 -18 -11 0 -5 -20 -19 -45
-30 -25 -11 -45 -24 -45 -29 0 -6 -9 -10 -20 -10 -11 0 -20 -4 -20 -9 0 -5
-24 -17 -52 -26 -29 -10 -62 -23 -73 -30 -11 -7 -38 -15 -60 -18 -22 -2 -67
-13 -100 -22 -77 -22 -255 -17 -280 9 -9 9 -23 16 -31 16 -18 0 -123 53 -124
62 0 4 -19 37 -42 75 l-43 67 0 111 c1 86 6 125 23 180 12 39 27 86 33 105 6
19 18 53 28 75 43 95 51 117 51 135 0 11 11 27 25 36 14 9 25 24 25 33 0 9 11
34 24 56 14 22 32 55 41 73 10 17 21 32 25 32 4 0 12 17 19 38 17 49 177 213
190 193 6 -9 11 -10 15 -2 4 6 2 11 -3 11 -25 0 -8 18 27 29 22 7 52 28 67 47
16 19 34 34 42 34 7 0 13 4 13 9 0 5 11 12 25 15 14 4 25 11 25 16 0 6 7 10
15 10 8 0 15 6 15 13 0 8 19 22 43 32 23 9 60 26 82 36 22 10 68 28 103 40 34
12 62 26 62 30 0 5 13 9 29 9 16 0 34 7 41 15 8 10 31 15 66 15 30 0 54 4 54
9 0 26 363 19 439 -8z m-3579 -2491 c0 -11 -4 -20 -10 -20 -5 0 -10 -7 -10
-16 0 -8 -4 -13 -9 -9 -5 3 -16 -2 -24 -10 -9 -8 -22 -15 -31 -15 -8 0 -19 -6
-23 -14 -4 -7 -24 -18 -44 -25 -20 -6 -45 -20 -57 -31 -12 -11 -28 -20 -37
-20 -8 0 -15 -3 -15 -8 0 -4 -62 -39 -137 -77 -76 -39 -139 -73 -141 -77 -2
-5 -10 -8 -18 -8 -8 0 -14 -3 -14 -7 0 -5 -29 -21 -65 -38 -36 -16 -65 -32
-65 -36 0 -3 -18 -14 -40 -24 -22 -10 -40 -22 -40 -27 0 -4 -9 -8 -20 -8 -10
0 -23 -6 -27 -14 -4 -7 -24 -18 -44 -25 -20 -6 -45 -20 -57 -31 -12 -11 -28
-20 -37 -20 -8 0 -15 -4 -15 -8 0 -4 -63 -39 -140 -77 -76 -39 -139 -75 -140
-82 0 -6 -9 -9 -22 -5 -12 3 -19 1 -15 -4 3 -5 -23 -23 -59 -39 -35 -16 -64
-32 -64 -36 0 -3 -18 -14 -40 -24 -22 -10 -40 -22 -40 -27 0 -4 -9 -8 -20 -8
-10 0 -23 -7 -28 -16 -5 -9 -21 -16 -36 -16 -16 0 -26 -6 -26 -15 0 -9 -6 -13
-15 -9 -8 3 -19 -2 -24 -12 -6 -9 -11 -12 -11 -5 0 6 -3 18 -6 26 -6 15 10 25
251 157 33 18 94 52 136 76 42 24 81 44 87 44 7 0 12 5 12 10 0 6 4 10 10 10
5 0 44 20 86 45 41 25 78 45 80 45 3 0 39 20 82 44 103 58 133 75 225 125 42
23 116 64 163 92 47 27 87 49 90 49 2 0 38 20 80 45 41 25 78 45 80 45 3 0 42
21 87 47 209 118 197 113 197 83z m9734 -513 c65 -21 68 -43 8 -71 -43 -21
-232 -33 -324 -22 -113 14 -117 58 -7 88 72 19 273 22 323 5z m9646 -10 c110
-37 86 -72 -59 -87 -147 -16 -302 9 -349 56 -14 14 -6 20 68 47 8 3 74 5 145
5 106 0 142 -4 195 -21z m-21114 -491 c10 -43 1 -81 -21 -81 -27 0 -42 46 -27
80 15 32 40 32 48 1z m38 -654 c40 -77 37 -330 -5 -368 -18 -16 -20 -15 -39
29 -47 106 -32 367 21 367 5 0 15 -12 23 -28z m16504 -442 c67 -5 177 -15 245
-20 177 -15 204 -26 127 -49 -204 -61 -1518 -64 -1890 -5 -30 5 -40 11 -38 23
3 13 28 18 138 28 74 7 176 16 225 21 131 12 1049 14 1193 2z m-17247 -722
c30 -9 39 -16 39 -33 0 -76 -296 -123 -361 -58 -19 19 -19 19 5 42 56 53 221
78 317 49z m19 -543 c48 -25 39 -49 -32 -89 -112 -62 -288 -73 -306 -18 -8 24
57 70 131 92 39 12 77 23 82 25 27 9 99 3 125 -10z m17305 -380 c1386 -146
2584 -777 3406 -1795 71 -87 159 -209 159 -219 0 -5 4 -11 8 -13 24 -9 183
-270 283 -465 123 -240 138 -280 132 -352 -4 -42 -10 -61 -19 -61 -11 0 -14
-19 -14 -80 0 -47 -4 -80 -10 -80 -6 0 -10 -33 -10 -80 0 -64 -3 -80 -15 -80
-12 0 -15 -16 -15 -80 0 -64 -3 -80 -15 -80 -11 0 -15 -11 -15 -40 0 -22 -4
-40 -10 -40 -5 0 -10 -18 -10 -40 0 -29 -4 -40 -15 -40 -12 0 -15 -16 -15 -80
0 -64 -3 -80 -15 -80 -11 0 -15 -11 -15 -40 0 -22 -4 -40 -10 -40 -5 0 -10
-18 -10 -40 0 -29 -4 -40 -15 -40 -11 0 -15 -11 -15 -40 0 -29 -4 -40 -15 -40
-11 0 -15 -11 -15 -40 0 -22 -4 -40 -10 -40 -5 0 -10 -18 -10 -40 0 -29 -4
-40 -15 -40 -11 0 -15 -11 -15 -40 0 -29 -4 -40 -15 -40 -11 0 -15 -11 -15
-40 0 -36 -2 -40 -25 -40 -22 0 -25 -4 -25 -40 0 -29 -4 -40 -15 -40 -11 0
-15 -11 -15 -40 0 -22 -4 -40 -10 -40 -5 0 -10 -18 -10 -40 0 -22 -4 -40 -9
-40 -12 0 -71 -59 -71 -70 0 -5 6 -11 13 -14 10 -5 10 -7 0 -12 -7 -3 -13 -22
-13 -43 0 -28 -7 -44 -30 -66 -16 -16 -30 -35 -30 -42 0 -7 -4 -13 -10 -13 -5
0 -10 -5 -10 -12 0 -6 -7 -20 -17 -30 -15 -17 -15 -18 0 -18 25 0 21 -13 -13
-45 -16 -16 -30 -35 -30 -42 0 -7 -4 -13 -9 -13 -5 0 -12 -8 -15 -17 -13 -37
-38 -74 -57 -86 -20 -12 -26 -37 -9 -37 6 0 10 -4 10 -10 0 -5 -6 -10 -13 -10
-7 0 -26 -13 -42 -30 -22 -23 -25 -30 -12 -30 9 0 17 -3 17 -7 0 -12 -33 -43
-45 -43 -7 0 -18 -7 -25 -15 -10 -12 -10 -15 4 -15 24 0 20 -13 -14 -45 -16
-16 -30 -35 -30 -42 0 -7 -4 -13 -10 -13 -5 0 -10 -5 -10 -12 0 -21 -33 -48
-59 -49 -22 -1 -21 -2 9 -10 19 -4 41 -6 48 -4 7 3 11 1 8 -4 -3 -4 12 -8 34
-8 24 0 37 4 33 10 -3 6 -1 7 6 3 6 -4 9 -12 6 -17 -4 -5 6 -9 22 -9 38 0 301
-60 438 -100 61 -18 127 -37 147 -42 21 -6 35 -14 33 -19 -3 -4 -18 -4 -32 2
-28 10 -48 -4 -35 -26 4 -6 8 -3 10 8 2 9 7 15 11 13 11 -7 -13 -161 -37 -231
-26 -79 -43 -116 -64 -139 -9 -10 -26 -38 -37 -61 -23 -48 -126 -165 -146
-165 -7 0 -15 -6 -18 -13 -2 -7 -22 -21 -43 -32 -22 -11 -42 -23 -45 -27 -3
-5 -17 -9 -31 -10 -19 -2 -24 -7 -20 -18 4 -11 0 -10 -16 4 -23 20 -31 9 -9
-13 10 -11 8 -12 -12 -6 -16 5 -21 4 -17 -4 13 -20 -15 -11 -37 12 -16 17 -18
18 -7 2 26 -35 160 -184 278 -308 62 -65 109 -123 106 -129 -4 -7 -9 -6 -14 1
-5 9 -11 7 -21 -5 -12 -15 -12 -17 0 -9 12 7 13 -1 7 -41 -4 -27 -7 -55 -8
-61 -1 -7 -4 -13 -8 -13 -8 0 -230 225 -317 320 -260 285 -450 549 -514 714
-15 39 -32 72 -37 74 -5 1 -23 -13 -41 -33 -30 -34 -35 -54 -35 -135 0 -15
-14 -40 -38 -65 -21 -22 -38 -46 -38 -52 0 -7 -6 -13 -13 -13 -16 0 -67 -52
-67 -68 0 -7 -6 -12 -13 -12 -8 0 -24 -12 -38 -26 -13 -14 -35 -30 -48 -35
-13 -5 -22 -12 -19 -15 3 -2 17 0 32 6 15 5 35 10 44 9 9 0 0 -6 -21 -12 -22
-7 -35 -16 -30 -21 4 -5 -2 -4 -14 3 -12 6 -29 8 -37 5 -9 -4 -22 -1 -29 5
-10 8 -14 7 -14 -2 0 -7 13 -14 29 -15 81 -6 353 -128 359 -161 1 -3 2 -18 3
-33 l3 -27 -66 33 c-105 52 -273 102 -304 90 -11 -4 -15 -23 -14 -75 0 -38 -1
-71 -4 -73 -2 -2 -44 -2 -92 1 l-88 6 1 66 c1 36 1 72 1 80 -1 11 -17 13 -88
8 -49 -4 -113 -13 -143 -21 -35 -10 -58 -12 -64 -6 -7 7 -6 10 2 10 6 0 9 6 6
14 -3 8 4 24 15 35 12 12 20 21 18 21 -17 0 -135 -49 -184 -76 -253 -140 -400
-365 -419 -640 -4 -52 -11 -94 -17 -94 -5 0 -18 -11 -29 -25 -16 -21 -28 -25
-69 -25 -46 0 -49 -2 -49 -25 0 -23 -4 -25 -41 -25 -22 0 -49 5 -60 10 -25 14
-25 -2 1 -18 11 -7 20 -17 20 -23 0 -6 -15 0 -34 15 -19 14 -38 26 -41 26 -4
0 -19 8 -33 18 -34 23 -65 35 -57 22 3 -6 11 -10 16 -10 11 0 23 -9 72 -53 23
-21 28 -30 19 -39 -8 -8 -9 -15 0 -25 6 -7 -25 4 -68 25 -44 22 -108 49 -144
60 -73 23 -181 45 -188 37 -3 -3 3 -5 14 -6 10 0 14 -3 9 -5 -14 -5 -6 -87 9
-96 8 -5 7 -8 -2 -8 -7 0 -10 -4 -7 -10 3 -5 0 -10 -7 -10 -10 0 -10 -2 1 -9
24 -15 -2 -19 -89 -12 l-85 6 -3 83 -3 84 -67 -7 c-37 -4 -98 -13 -136 -21
-38 -7 -72 -11 -77 -8 -5 2 -6 19 -2 36 6 28 4 30 -18 24 -13 -4 -65 -27 -115
-52 -94 -46 -194 -126 -269 -216 -22 -25 -44 -44 -49 -41 -5 4 -6 1 -3 -4 4
-6 -11 -44 -32 -84 -20 -41 -40 -84 -43 -96 -6 -22 -11 -23 -93 -23 -54 0 -84
-4 -80 -10 3 -5 2 -17 -3 -26 -8 -14 -10 -9 -14 19 -2 19 0 33 4 31 4 -3 8 1
8 9 0 8 -6 17 -14 20 -7 3 -16 15 -19 26 -3 12 -1 19 4 15 13 -8 11 2 -4 18
-20 21 -38 68 -31 81 4 7 4 9 -1 5 -4 -4 -22 14 -39 41 -47 75 -121 156 -188
206 -63 47 -94 60 -63 25 18 -20 18 -21 -1 -13 -18 7 -18 6 -1 -20 9 -15 16
-27 14 -27 -2 0 -37 16 -77 36 -85 41 -195 78 -262 88 l-48 7 0 -81 0 -82 -82
7 c-46 4 -86 9 -90 11 -3 2 -3 15 0 29 4 13 5 47 4 75 l-4 50 -46 0 c-41 -1
-78 -6 -222 -32 -14 -3 -19 -3 -13 -1 10 3 9 9 -3 21 -11 11 -13 17 -5 20 6 2
9 7 6 12 -3 4 7 11 21 14 15 4 24 9 22 12 -16 15 -212 -78 -293 -139 -59 -44
-163 -155 -193 -206 -24 -41 -44 -43 -26 -3 4 9 6 24 5 31 -2 13 0 13 16 0 16
-13 17 -13 4 3 -15 20 -35 14 -27 -8 3 -7 0 -16 -5 -20 -6 -4 -8 -19 -5 -36 4
-21 2 -28 -7 -25 -6 2 -19 -7 -28 -20 -9 -14 -19 -21 -22 -16 -3 5 5 21 19 36
18 19 21 27 10 27 -8 0 -20 -8 -25 -17 -10 -17 -10 -16 -11 2 0 17 -2 17 -10
5 -6 -10 -10 -11 -10 -2 0 7 -15 12 -40 12 -23 0 -40 5 -40 11 0 8 -4 8 -15
-1 -8 -6 -19 -9 -24 -5 -6 3 -20 1 -31 -5 -14 -8 -20 -8 -20 0 0 6 -5 8 -11 5
-7 -5 -4 -14 8 -28 18 -20 17 -20 -2 -9 -16 8 -27 5 -60 -21 -31 -24 -27 -18
19 29 32 32 70 76 84 96 13 21 29 35 35 31 5 -3 7 -2 4 4 -3 5 7 37 23 69 49
101 70 196 70 314 0 129 -16 196 -75 315 -52 105 -126 192 -225 264 -76 55
-92 63 -60 29 23 -25 25 -34 8 -41 -7 -3 -4 -6 6 -6 14 -1 17 -4 10 -11 -7 -7
-37 2 -95 29 -106 50 -249 88 -276 72 -10 -6 -13 -11 -7 -11 6 0 8 -19 4 -55
-4 -35 -2 -55 4 -56 6 0 5 -3 -2 -6 -6 -2 -10 -9 -7 -14 6 -8 -132 -3 -162 6
-7 2 -11 27 -12 67 0 35 0 69 0 76 -1 17 -80 16 -178 -3 -97 -19 -93 -19 -93
4 0 11 -6 22 -12 24 -8 3 -6 6 5 6 9 1 17 5 17 10 0 5 14 12 31 16 17 4 28 9
25 12 -14 14 -200 -65 -280 -120 -32 -22 -84 -63 -114 -93 -31 -29 -59 -51
-64 -48 -4 3 -5 -1 -3 -9 3 -7 -3 -22 -15 -32 -21 -19 -28 -8 -7 14 10 10 8
11 -6 5 -12 -4 -17 -13 -14 -26 6 -19 -31 -93 -41 -84 -3 3 0 11 6 19 6 7 10
20 8 30 -3 21 -46 67 -63 67 -7 0 -13 5 -13 12 0 16 -51 68 -67 68 -7 0 -13 5
-13 12 0 16 -51 68 -67 68 -7 0 -13 5 -13 12 0 16 -51 68 -67 68 -7 0 -13 4
-13 9 0 5 -14 11 -32 15 -17 3 -28 9 -25 12 3 4 19 2 34 -3 40 -14 222 -5 328
16 501 101 786 584 594 1009 -53 117 -158 240 -269 315 -29 20 -52 23 -25 4
10 -8 15 -19 11 -25 -4 -6 -2 -21 4 -32 9 -17 0 -14 -60 16 -84 42 -132 59
-217 79 -79 19 -83 19 -83 0 0 -8 -6 -15 -12 -15 -10 0 -10 -2 0 -8 8 -6 12
-28 11 -65 l-2 -57 -51 0 c-28 0 -68 3 -89 7 l-39 6 2 66 c1 36 2 72 1 80 -1
11 -16 13 -78 7 -43 -3 -103 -13 -133 -21 -62 -17 -80 -19 -65 -7 6 4 10 18
10 32 0 16 9 29 25 37 41 21 7 15 -61 -11 -106 -40 -208 -105 -288 -184 -42
-42 -80 -74 -86 -73 -5 2 -7 0 -3 -4 4 -4 -11 -35 -31 -69 -21 -34 -42 -72
-45 -84 -4 -12 -12 -20 -17 -17 -5 3 -7 0 -4 -7 7 -19 -10 -73 -23 -71 -6 1
-9 -12 -7 -32 2 -20 -1 -33 -6 -30 -5 4 -9 0 -9 -7 -1 -7 -7 -2 -15 12 -9 16
-10 27 -3 31 6 4 7 15 4 26 -5 17 -2 20 16 18 13 -1 15 0 6 2 -9 2 -22 11 -28
19 -7 8 -17 14 -23 14 -13 0 -47 30 -47 42 0 4 8 8 17 8 13 0 10 7 -12 30 -16
17 -35 30 -42 30 -7 0 -13 5 -13 10 0 6 12 10 26 10 22 0 25 2 14 15 -7 8 -17
15 -23 15 -13 0 -47 30 -47 42 0 4 8 8 17 8 13 0 10 7 -12 30 -16 17 -35 30
-42 30 -7 0 -13 5 -13 10 0 6 5 10 10 10 18 0 10 22 -15 42 -14 11 -25 25 -25
32 0 6 -5 17 -12 24 -9 9 -15 6 -25 -16 -7 -15 -11 -19 -9 -10 14 51 17 88 8
88 -6 0 -12 -6 -15 -12 -2 -7 -2 8 1 35 3 28 1 47 -5 47 -12 0 -18 114 -17
325 2 228 17 396 64 685 8 54 59 275 81 355 126 463 374 967 671 1366 378 508
829 914 1383 1246 655 391 1430 639 2200 703 72 5 150 12 175 14 107 9 674 -4
815 -19z m-17215 -185 c17 -32 -5 -59 -73 -89 -81 -36 -169 -54 -222 -46 -158
23 21 153 212 154 62 1 74 -2 83 -19z m38 -583 c50 -50 -116 -139 -264 -141
-57 -1 -94 13 -94 35 0 13 48 58 83 76 86 45 242 62 275 30z m111 -576 c23
-14 5 -57 -34 -81 -85 -53 -246 -86 -293 -61 -81 43 91 150 243 150 39 1 76
-3 84 -8z m103 -559 c21 -21 -22 -64 -107 -106 -63 -32 -93 -40 -149 -43 -88
-6 -114 8 -95 50 7 15 16 27 20 27 4 0 14 6 21 13 18 16 52 33 118 57 61 22
171 23 192 2z m107 -561 c42 -27 -41 -101 -157 -140 -59 -20 -144 -27 -176
-15 -36 14 -6 63 66 109 68 43 228 70 267 46z m20878 -403 c-3 -8 -6 -5 -6 6
-1 11 2 17 5 13 3 -3 4 -12 1 -19z m-20749 -179 c5 -45 -79 -101 -203 -135
-72 -20 -111 -18 -136 7 l-21 21 29 30 c57 61 180 108 273 105 51 -2 55 -4 58
-28z m8702 -344 c0 -12 -24 -55 -31 -55 -4 0 -9 -6 -11 -12 -7 -27 -84 -137
-95 -138 -7 0 -13 -6 -13 -12 0 -14 -118 -98 -137 -98 -6 0 -13 -6 -16 -12 -4
-10 -7 -10 -18 0 -8 7 -9 12 -2 12 6 0 13 18 17 40 3 22 11 40 16 40 6 0 10 7
10 16 0 8 15 38 33 65 33 52 149 139 188 142 10 1 19 5 19 9 0 4 9 8 20 8 11
0 20 -2 20 -5z m15232 -47 c16 -7 28 -16 28 -20 0 -5 4 -8 10 -8 23 0 65 -50
96 -117 19 -40 34 -77 34 -83 0 -19 -31 -10 -54 15 -13 14 -30 25 -37 25 -8 0
-20 9 -27 20 -7 11 -19 20 -27 20 -8 0 -15 9 -15 20 0 11 -7 20 -15 20 -8 0
-15 6 -15 14 0 8 -7 16 -15 20 -8 3 -15 14 -15 25 0 11 -9 25 -20 31 -22 12
-27 36 -7 43 12 4 31 -2 79 -25z m-23784 -135 c5 -31 -55 -86 -132 -123 -80
-37 -184 -51 -204 -27 -46 55 157 179 283 174 43 -2 50 -5 53 -24z m176 -539
c9 -3 16 -17 16 -29 0 -52 -156 -143 -265 -154 -72 -8 -92 2 -80 39 8 26 88
90 140 111 22 9 51 21 65 27 28 12 100 15 124 6z m22656 -119 c0 -11 11 -15
40 -15 22 0 40 -4 40 -10 0 -5 -18 -10 -40 -10 -29 0 -40 -4 -40 -15 0 -11 12
-15 48 -15 50 0 71 -13 85 -53 4 -9 15 -20 24 -24 40 -14 53 -35 53 -85 0 -45
2 -48 25 -48 23 0 25 -4 25 -40 0 -29 4 -40 15 -40 13 0 15 -29 15 -200 0
-171 -2 -200 -15 -200 -11 0 -15 -11 -15 -40 0 -22 -4 -40 -10 -40 -5 0 -10
18 -10 40 0 29 -4 40 -15 40 -11 0 -15 -11 -15 -40 0 -36 -3 -40 -24 -40 -15
0 -26 7 -28 17 -3 15 -4 15 -17 0 -12 -15 -11 -17 3 -17 10 0 16 -9 16 -25 0
-22 -4 -25 -40 -25 -29 0 -40 -4 -40 -15 0 -11 11 -15 40 -15 22 0 40 -4 40
-10 0 -5 -18 -10 -40 -10 -22 0 -40 5 -40 10 0 6 -47 10 -120 10 -100 0 -120
3 -120 15 0 11 -12 15 -48 15 -49 0 -71 13 -85 52 -3 9 -18 22 -34 30 -15 7
-34 26 -41 41 -8 16 -21 31 -30 34 -39 14 -52 36 -52 85 0 45 -2 48 -25 48
-22 0 -25 4 -25 40 0 29 -4 40 -15 40 -12 0 -15 20 -15 120 l0 120 25 0 c23 0
25 4 25 40 0 22 -4 40 -10 40 -5 0 -10 18 -10 40 0 22 5 40 10 40 6 0 10 -18
10 -40 0 -29 4 -40 15 -40 11 0 15 11 15 40 0 36 3 40 25 40 22 0 25 4 25 39
0 22 -5 41 -12 44 -8 2 -9 8 -4 13 5 5 11 4 13 -3 3 -8 22 -13 44 -13 35 0 39
3 39 25 l0 25 160 0 c136 0 160 -2 160 -15z m-13440 -90 c0 -22 4 -25 40 -25
22 0 40 5 40 10 0 6 18 10 40 10 22 0 40 -4 40 -10 0 -5 -18 -10 -40 -10 -29
0 -40 -4 -40 -15 0 -11 11 -15 40 -15 36 0 40 -2 40 -25 0 -16 -6 -25 -16 -25
-14 0 -15 -2 -3 -17 13 -15 14 -15 17 0 2 10 13 17 28 17 21 0 24 -4 24 -40 0
-35 3 -40 24 -40 23 0 23 -3 28 -100 3 -55 3 -145 0 -200 -5 -97 -5 -100 -28
-100 -22 0 -24 -4 -24 -48 0 -49 -13 -71 -52 -85 -9 -3 -22 -18 -30 -34 -7
-15 -24 -33 -36 -39 -42 -21 -49 -34 -19 -34 15 0 27 -4 27 -10 0 -5 -22 -10
-50 -10 -38 0 -50 -4 -50 -15 0 -11 -11 -15 -40 -15 -29 0 -40 -4 -40 -15 0
-11 11 -15 40 -15 22 0 40 -4 40 -10 0 -5 -18 -10 -40 -10 -22 0 -40 5 -40 10
0 6 -18 10 -40 10 -29 0 -40 -4 -40 -15 0 -17 -11 -18 -99 -9 -56 6 -61 9 -61
30 0 21 -5 24 -40 24 -36 0 -40 3 -40 25 0 22 -4 25 -39 25 -22 0 -41 -5 -44
-12 -2 -8 -8 -9 -13 -4 -5 5 -4 11 4 13 7 3 12 22 12 44 0 34 -3 39 -24 39
-23 0 -23 3 -28 100 -7 152 2 300 18 300 10 0 14 13 14 40 0 36 3 40 25 40 23
0 25 3 25 48 0 50 13 71 53 85 9 4 20 15 24 24 14 40 35 53 85 53 36 0 48 4
48 15 0 11 -11 15 -40 15 -22 0 -40 5 -40 10 0 6 18 10 40 10 22 0 40 -4 40
-10 0 -5 18 -10 40 -10 36 0 40 3 40 25 0 25 1 25 80 25 79 0 80 0 80 -25z
m13620 -15 c0 -5 -4 -10 -10 -10 -5 0 -10 5 -10 10 0 6 5 10 10 10 6 0 10 -4
10 -10z m-14020 -80 c0 -5 -4 -10 -10 -10 -5 0 -10 5 -10 10 0 6 5 10 10 10 6
0 10 -4 10 -10z m12085 -170 c6 0 22 -29 34 -65 13 -36 27 -65 32 -65 14 0 11
-28 -3 -33 -10 -4 -10 -7 0 -18 6 -7 12 -23 12 -36 0 -14 6 -23 15 -23 12 0
15 -16 15 -80 0 -47 4 -80 10 -80 6 0 10 -47 10 -120 0 -73 -4 -120 -10 -120
-5 0 -10 -17 -10 -37 0 -21 -5 -56 -10 -78 -6 -25 -6 -41 0 -43 15 -5 12 -28
-6 -43 -9 -7 -13 -21 -10 -34 3 -12 -3 -37 -13 -56 -10 -19 -25 -64 -34 -101
-10 -37 -28 -88 -42 -112 -14 -26 -22 -52 -18 -61 3 -10 0 -21 -8 -26 -21 -13
-29 -11 -23 6 4 10 -3 18 -20 25 -30 11 -30 9 -11 125 41 255 54 455 56 845 2
230 5 304 12 273 5 -24 15 -43 22 -43z m-8 58 c-3 -8 -6 -5 -6 6 -1 11 2 17 5
13 3 -3 4 -12 1 -19z m-20679 -167 c3 -17 -10 -36 -50 -75 -80 -78 -205 -129
-260 -108 -20 8 -25 16 -21 31 8 31 52 75 116 115 76 48 123 66 172 63 34 -2
41 -6 43 -26z m9319 -33 c-2 -13 -4 -3 -4 22 0 25 2 35 4 23 2 -13 2 -33 0
-45z m1343 -19 c0 -11 -4 -18 -10 -14 -5 3 -7 12 -3 20 7 21 13 19 13 -6z m6
-93 c-1 -30 -4 -58 -8 -62 -5 -4 -8 5 -8 19 0 15 -4 27 -10 27 -5 0 -10 5 -10
11 0 5 5 7 10 4 6 -4 10 7 10 24 0 17 4 31 8 31 5 0 8 -24 8 -54z m-37 -98 c1
7 6 10 11 7 6 -3 10 -1 10 4 0 6 5 11 10 11 6 0 10 -27 10 -60 0 -33 -4 -60
-10 -60 -5 0 -10 -5 -10 -11 0 -5 4 -8 9 -5 4 3 11 -54 15 -127 7 -143 19
-265 42 -447 2 -14 6 -37 10 -52 4 -17 2 -28 -4 -28 -6 0 -12 -8 -14 -17 -6
-32 -58 152 -58 205 0 41 -3 52 -16 52 -14 0 -15 10 -9 80 6 68 5 80 -8 80
-13 0 -15 20 -15 123 0 67 3 113 5 102 9 -36 23 -41 23 -7 0 22 -5 32 -15 32
-8 0 -15 5 -15 10 0 6 7 10 15 10 8 0 15 7 15 15 0 8 -6 12 -12 10 -10 -4 -12
8 -9 47 3 39 6 48 12 33 4 -11 8 -14 8 -7z m11411 -58 c0 -5 -4 -10 -10 -10
-5 0 -10 5 -10 10 0 6 5 10 10 10 6 0 10 -4 10 -10z m-12860 -80 c0 -5 -4 -10
-10 -10 -5 0 -10 5 -10 10 0 6 5 10 10 10 6 0 10 -4 10 -10z m12940 0 c0 -5
-4 -10 -10 -10 -5 0 -10 5 -10 10 0 6 5 10 10 10 6 0 10 -4 10 -10z m-21935
-124 c18 -13 18 -17 6 -40 -24 -45 -80 -93 -149 -129 -78 -40 -112 -50 -147
-41 -74 19 33 142 173 200 66 27 91 29 117 10z m8415 -36 c0 -5 -4 -10 -10
-10 -5 0 -10 5 -10 10 0 6 5 10 10 10 6 0 10 -4 10 -10z m2487 -22 c-3 -8 -6
-5 -6 6 -1 11 2 17 5 13 3 -3 4 -12 1 -19z m1050 7 c60 -18 126 -78 144 -132
13 -40 3 -53 -42 -53 -14 0 -46 -3 -71 -6 -43 -6 -45 -5 -58 26 -23 56 -102
73 -163 36 -27 -16 -55 -76 -63 -135 l-7 -51 44 25 c90 51 249 26 321 -51 61
-66 83 -166 56 -258 -18 -61 -101 -140 -168 -160 -151 -45 -306 1 -379 111
-77 116 -81 392 -6 518 69 119 239 175 392 130z m-3314 -52 c-13 -2 -33 -2
-45 0 -13 2 -3 4 22 4 25 0 35 -2 23 -4z m11997 -18 c0 -8 -4 -15 -10 -15 -5
0 -10 7 -10 15 0 8 5 15 10 15 6 0 10 -7 10 -15z m-9733 -17 c-3 -8 -6 -5 -6
6 -1 11 2 17 5 13 3 -3 4 -12 1 -19z m40 -20 c-3 -8 -6 -5 -6 6 -1 11 2 17 5
13 3 -3 4 -12 1 -19z m8880 -234 c-3 -3 -12 -4 -19 -1 -8 3 -5 6 6 6 11 1 17
-2 13 -5z m-19521 -116 c30 -48 -121 -196 -234 -229 -37 -11 -45 -10 -59 4
-14 13 -14 20 -3 47 43 105 261 235 296 178z m10261 -95 c6 -24 7 -43 3 -43
-9 0 -19 35 -21 70 0 23 -1 23 -9 5 -10 -24 -12 -9 -3 25 6 22 7 23 13 5 4
-11 12 -39 17 -62z m-50 5 c-3 -7 -5 -2 -5 12 0 14 2 19 5 13 2 -7 2 -19 0
-25z m20 -30 c-3 -8 -6 -5 -6 6 -1 11 2 17 5 13 3 -3 4 -12 1 -19z m9947 -17
c3 -4 -6 -6 -19 -3 -14 2 -25 6 -25 8 0 8 39 4 44 -5z m-24 -26 c0 -8 -2 -15
-4 -15 -2 0 -6 7 -10 15 -3 8 -1 15 4 15 6 0 10 -7 10 -15z m-13 -67 c-3 -8
-6 -5 -6 6 -1 11 2 17 5 13 3 -3 4 -12 1 -19z m-1850 -40 c-3 -8 -6 -5 -6 6
-1 11 2 17 5 13 3 -3 4 -12 1 -19z m-8000 -10 c-3 -8 -6 -5 -6 6 -1 11 2 17 5
13 3 -3 4 -12 1 -19z m8040 -90 c-3 -8 -6 -5 -6 6 -1 11 2 17 5 13 3 -3 4 -12
1 -19z m-7192 -48 c3 -5 1 -10 -4 -10 -6 0 -11 5 -11 10 0 6 2 10 4 10 3 0 8
-4 11 -10z m-10855 -105 c41 -50 -160 -245 -251 -245 -15 0 -31 5 -35 11 -10
17 16 83 46 115 105 111 206 161 240 119z m17797 -1 c-3 -3 -12 -4 -19 -1 -8
3 -5 6 6 6 11 1 17 -2 13 -5z m877 -110 c3 -8 2 -12 -4 -9 -6 3 -10 10 -10 16
0 14 7 11 14 -7z m-7286 -189 c-3 -3 -9 2 -12 12 -6 14 -5 15 5 6 7 -7 10 -15
7 -18z m-7 -72 c-12 -20 -14 -14 -5 12 4 9 9 14 11 11 3 -2 0 -13 -6 -23z
m-11051 -82 c1 -66 -150 -244 -216 -257 -66 -12 -69 38 -9 132 37 58 85 105
143 141 28 17 39 19 58 11 13 -6 24 -18 24 -27z m12140 -42 c0 -47 -4 -56 -49
-108 -146 -170 -237 -370 -258 -571 l-6 -60 -85 0 -85 0 6 68 c15 154 105 371
212 510 l55 72 -200 0 -200 0 0 70 0 70 305 0 305 0 0 -51z m5203 -129 c61
-32 92 -65 122 -131 50 -112 56 -320 12 -447 -42 -121 -132 -181 -272 -181
-181 0 -273 94 -295 300 -28 252 48 433 197 475 67 19 183 11 236 -16z m-1036
-242 c-3 -8 -6 -5 -6 6 -1 11 2 17 5 13 3 -3 4 -12 1 -19z m-15919 -30 c5 -41
-52 -139 -116 -201 -81 -77 -132 -85 -132 -22 0 50 37 112 112 188 60 60 71
68 100 65 28 -2 34 -8 36 -30z m12380 -327 c-7 -12 -16 -21 -21 -21 -8 0 -2
14 16 38 16 20 20 6 5 -17z m-11928 -58 c0 -100 -144 -283 -204 -260 -60 23
43 245 141 304 47 28 63 17 63 -44z m11904 11 c3 -8 2 -12 -4 -9 -6 3 -10 10
-10 16 0 14 7 11 14 -7z m922 -55 c122 -21 194 -94 194 -197 0 -59 -27 -105
-83 -141 l-37 -25 27 -11 c43 -19 94 -66 109 -102 19 -43 18 -125 -2 -171 -34
-82 -109 -135 -220 -152 -214 -34 -395 96 -369 265 8 59 51 119 103 148 l44
24 -42 24 c-52 29 -80 81 -80 146 0 93 68 165 177 189 75 16 103 16 179 3z
m1909 -64 c82 -13 168 -84 205 -168 32 -72 46 -217 32 -324 -28 -208 -139
-316 -327 -317 -102 -1 -162 21 -210 77 -32 37 -65 111 -54 121 2 2 40 7 85
11 l81 7 13 -32 c13 -33 54 -60 90 -60 26 0 70 22 92 46 18 21 48 115 48 152
0 24 -1 24 -19 8 -46 -42 -161 -59 -232 -34 -55 18 -119 70 -147 118 -24 40
-27 56 -27 135 0 99 11 129 66 184 17 18 50 41 73 53 38 20 141 39 176 32 8
-1 33 -5 55 -9z m-974 -37 c-3 -21 -6 -26 -9 -15 -3 17 3 47 11 47 2 0 1 -15
-2 -32z m-24 -10 c-3 -8 -6 -5 -6 6 -1 11 2 17 5 13 3 -3 4 -12 1 -19z
m-13282 -152 c19 -98 -87 -306 -156 -306 -42 0 -37 114 10 213 58 120 132 168
146 93z m519 -255 c16 -102 -51 -286 -104 -286 -21 0 -27 8 -39 45 -26 80 20
255 78 301 l26 20 16 -20 c9 -11 19 -38 23 -60z m513 -173 c24 -48 29 -181 9
-250 -42 -146 -116 -93 -116 83 1 85 11 139 34 174 23 35 52 32 73 -7z m2323
1 c61 -35 130 -173 130 -263 0 -105 -84 -65 -151 72 -32 65 -49 161 -35 197 7
19 11 19 56 -6z m-1756 -72 c32 -48 48 -113 48 -197 0 -96 -11 -135 -41 -143
-48 -12 -93 99 -93 230 1 112 46 171 86 110z m1184 -23 c41 -49 72 -135 79
-214 5 -55 2 -69 -14 -89 -19 -23 -20 -23 -46 -6 -64 41 -130 259 -97 320 19
35 43 31 78 -11z m-627 -17 c48 -37 98 -213 83 -293 -22 -119 -119 -19 -146
150 -18 119 10 184 63 143z m13399 -172 c-7 -8 -17 -15 -22 -15 -5 0 -18 -8
-29 -19 -12 -11 -29 -17 -42 -14 -16 3 -18 2 -8 -5 10 -7 12 -31 10 -96 -3
-71 -1 -86 11 -87 8 0 0 -6 -18 -13 -18 -6 -30 -15 -25 -20 4 -5 1 -7 -9 -3
-9 3 -22 0 -28 -8 -6 -8 -28 -19 -48 -26 -20 -6 -41 -15 -47 -19 -21 -16 -307
-121 -450 -165 -380 -117 -731 -186 -1140 -221 -235 -20 -792 -15 -1005 10
-363 41 -697 110 -1015 208 -132 41 -338 118 -346 130 -3 5 -10 8 -15 7 -21
-4 -35 2 -29 12 4 5 -1 19 -11 30 -9 10 -12 19 -6 19 6 0 17 -9 24 -19 9 -13
19 -17 27 -11 11 6 9 10 -8 19 -19 10 -21 20 -21 92 0 73 2 80 18 74 59 -23
214 -75 387 -128 533 -165 1207 -247 1795 -218 656 33 1208 153 1823 398 76
30 143 56 150 57 7 1 19 6 27 11 20 13 54 33 59 34 2 1 -2 -6 -9 -14z m40
-189 c0 -2 -7 -7 -16 -10 -8 -3 -12 -2 -9 4 6 10 25 14 25 6z m-70 -36 c-8 -5
-19 -10 -25 -10 -5 0 -3 5 5 10 8 5 20 10 25 10 6 0 3 -5 -5 -10z m-4243 -106
c-3 -3 -12 -4 -19 -1 -8 3 -5 6 6 6 11 1 17 -2 13 -5z m4525 -2007 c5 -9 92
-13 363 -15 l355 -4 0 -24 c0 -21 4 -24 40 -24 36 0 40 -2 40 -25 0 -22 4 -25
40 -25 22 0 40 5 40 10 0 6 23 10 50 10 28 0 50 -4 50 -10 0 -5 -22 -10 -50
-10 -38 0 -50 -4 -50 -15 0 -11 11 -15 40 -15 36 0 40 -2 40 -25 0 -20 5 -25
25 -25 25 0 25 -1 25 -80 0 -64 3 -80 15 -80 12 0 15 16 15 80 0 47 4 80 10
80 6 0 10 -60 10 -160 0 -136 2 -160 15 -160 19 0 19 -9 -2 -32 -22 -25 -33
-23 -33 7 0 16 -6 25 -15 25 -11 0 -15 -12 -15 -49 0 -41 -4 -53 -25 -69 -14
-11 -25 -25 -25 -31 0 -6 -6 -11 -13 -11 -7 0 -18 -9 -25 -20 -7 -12 -24 -25
-38 -30 -13 -5 -27 -18 -31 -27 -8 -23 -33 -53 -45 -53 -4 0 -8 8 -8 17 0 13
-7 10 -30 -12 -16 -16 -30 -35 -30 -42 0 -7 -4 -13 -10 -13 -5 0 -10 5 -10 10
0 18 -25 11 -38 -10 -7 -12 -23 -25 -35 -30 -29 -13 -60 -33 -70 -45 -6 -6
-10 -6 -14 3 -2 6 -8 12 -13 12 -11 0 -70 -59 -70 -71 0 -5 -23 -9 -51 -9 -43
0 -54 -4 -71 -25 -23 -29 -38 -32 -38 -8 0 13 -8 9 -33 -15 -28 -27 -41 -32
-80 -32 -26 0 -47 -4 -47 -8 0 -14 -94 -42 -142 -42 -28 0 -52 -6 -62 -15 -9
-9 -34 -15 -65 -15 -28 0 -51 -4 -51 -9 0 -5 -36 -12 -80 -16 -44 -4 -80 -11
-80 -15 0 -4 -36 -11 -80 -15 -44 -4 -80 -11 -80 -16 0 -5 -18 -9 -39 -9 -22
0 -41 -5 -43 -10 -2 -6 -55 -13 -121 -17 -64 -3 -117 -9 -117 -13 0 -5 -36
-11 -80 -15 -44 -4 -80 -11 -80 -16 0 -5 -54 -9 -120 -9 -66 0 -120 -4 -120
-9 0 -5 -71 -12 -157 -16 -87 -4 -161 -11 -164 -17 -3 -5 -124 -11 -279 -14
-193 -3 -276 -8 -281 -16 -5 -8 -70 -13 -203 -16 -108 -3 -196 -9 -196 -13 0
-13 -478 -11 -482 2 -2 6 -98 12 -278 15 -167 3 -276 8 -278 14 -5 13 -162 13
-162 0 0 -14 -77 -13 -82 1 -2 7 -59 13 -161 17 -86 2 -157 8 -157 12 0 4 -53
10 -117 13 -66 4 -119 11 -121 17 -2 6 -38 10 -83 10 -43 0 -79 4 -79 8 0 5
-53 12 -117 15 -64 4 -119 11 -122 16 -3 5 -41 12 -83 16 -43 4 -78 11 -78 16
0 5 -18 9 -40 9 -22 0 -40 4 -40 9 0 5 -36 12 -80 16 -44 4 -80 11 -80 16 0 5
-17 9 -39 9 -22 0 -44 6 -51 15 -7 8 -18 15 -25 15 -7 0 -18 7 -25 15 -8 10
-31 15 -65 15 -45 0 -57 4 -73 25 -22 27 -37 32 -46 13 -5 -10 -7 -10 -12 0
-3 6 -22 12 -43 12 -28 0 -44 7 -66 30 -16 17 -35 30 -42 30 -7 0 -13 5 -13
10 0 6 -17 10 -38 10 -29 0 -45 7 -67 30 -16 17 -35 30 -42 30 -7 0 -13 6 -13
13 0 7 -13 26 -30 42 -23 22 -30 25 -30 12 0 -21 -8 -21 -32 0 -25 22 -23 33
7 33 16 0 25 6 25 15 0 11 -11 15 -40 15 -36 0 -40 3 -40 25 0 20 -5 25 -25
25 -22 0 -25 4 -25 40 0 29 -4 40 -15 40 -11 0 -15 -11 -15 -40 0 -22 -4 -40
-10 -40 -6 0 -10 33 -10 80 0 47 4 80 10 80 6 0 10 18 10 40 0 22 -4 40 -10
40 -5 0 -10 18 -10 40 0 22 5 40 10 40 6 0 10 18 10 40 0 38 2 40 30 40 29 0
30 1 30 50 0 28 5 50 10 50 6 0 10 -4 10 -10 0 -5 18 -10 40 -10 l40 0 0 40 0
40 40 0 c22 0 40 5 40 10 0 6 33 10 80 10 64 0 80 3 80 15 0 12 16 15 80 15
64 0 80 3 80 15 0 12 15 15 79 15 48 0 81 4 83 11 2 7 72 12 198 15 107 3 197
8 200 13 3 5 148 12 323 16 174 4 317 11 317 16 0 5 90 9 199 9 110 0 201 4
203 9 3 9 663 37 796 33 49 -1 82 2 82 8 0 16 2952 4 2962 -13z m-11814 -2096
c38 -41 52 -67 52 -96 0 -23 -2 -24 -22 -13 -13 7 -27 19 -31 26 -4 6 -14 12
-22 12 -14 0 -31 72 -20 90 9 15 14 13 43 -19z m18668 -26 c-4 -20 -14 -39
-22 -42 -7 -3 -14 -11 -14 -18 0 -7 -13 -15 -30 -17 -34 -5 -34 -6 -19 45 5
21 16 37 24 37 8 0 15 4 15 9 0 5 7 17 16 26 24 23 38 4 30 -40z m-8281 -697
c165 -6 336 -10 379 -10 44 1 83 -2 86 -8 3 -5 82 -14 175 -20 184 -12 225
-21 205 -45 -7 -8 -23 -15 -36 -15 -15 0 -24 -6 -24 -15 0 -8 -6 -15 -12 -15
-7 0 -110 -7 -228 -15 -118 -8 -257 -15 -307 -15 -61 0 -93 -4 -93 -11 0 -7
-39 -10 -122 -9 -68 1 -197 -1 -288 -3 -225 -7 -1695 -7 -1900 0 -91 3 -219 5
-285 5 -66 0 -122 3 -125 7 -3 4 -129 15 -280 24 -161 10 -276 21 -278 27 -2
5 -30 10 -61 10 -84 0 -181 11 -181 21 0 5 18 9 40 9 22 0 40 4 40 9 0 5 39
12 88 15 48 3 150 13 227 21 366 39 905 52 1945 48 404 -2 870 -8 1035 -15z
m960 -88 c3 -5 1 -10 -4 -10 -6 0 -11 5 -11 10 0 6 2 10 4 10 3 0 8 -4 11 -10z
m-12368 -2707 c-3 -10 -5 -4 -5 12 0 17 2 24 5 18 2 -7 2 -21 0 -30z m19639
-1615 c-9 -5 -27 -7 -39 -5 -18 4 -18 4 6 6 15 0 27 6 27 12 0 5 5 7 11 3 8
-5 6 -10 -5 -16z m-69 6 c-3 -3 -12 -4 -19 -1 -8 3 -5 6 6 6 11 1 17 -2 13 -5z
m-18437 -49 c0 -10 -16 -4 -40 16 l-25 20 33 -16 c17 -8 32 -18 32 -20z
m18331 0 c-18 -8 -36 -15 -40 -15 -13 1 45 29 59 29 8 0 0 -6 -19 -14z m-171
-65 c-8 -5 -19 -10 -25 -10 -5 0 -3 5 5 10 8 5 20 10 25 10 6 0 3 -5 -5 -10z
m-150 -40 c-8 -5 -22 -9 -30 -9 -10 0 -8 3 5 9 27 12 43 12 25 0z m-160 -40
c-8 -5 -33 -9 -55 -8 l-40 1 40 7 c65 12 73 12 55 0z m-207 -17 c-7 -2 -19 -2
-25 0 -7 3 -2 5 12 5 14 0 19 -2 13 -5z"/>
<path d="M29840 32176 c0 -9 5 -16 10 -16 6 0 10 4 10 9 0 6 -4 13 -10 16 -5
3 -10 -1 -10 -9z"/>
<path d="M8000 30069 c0 -5 5 -7 10 -4 6 3 10 8 10 11 0 2 -4 4 -10 4 -5 0
-10 -5 -10 -11z"/>
<path d="M19787 24035 c-100 -40 -169 -87 -257 -175 -68 -67 -95 -103 -128
-170 -123 -246 -84 -522 103 -727 252 -276 680 -346 1026 -167 73 38 111 66
178 133 47 47 101 111 119 143 133 227 119 500 -36 711 -46 61 -144 153 -194
180 l-33 18 23 -20 c14 -12 19 -22 12 -26 -6 -4 -9 -13 -6 -21 7 -19 3 -18
-69 15 -69 32 -182 68 -230 73 l-30 3 -5 -63 c-3 -35 -1 -66 4 -70 17 -10 -28
-21 -92 -21 -44 -1 -68 4 -78 14 -9 8 -11 15 -6 15 5 0 10 32 11 71 l2 72 -73
-7 c-40 -4 -98 -12 -130 -20 -55 -13 -56 -13 -61 10 -2 13 1 28 6 33 21 21 0
19 -56 -4z m484 -460 c105 -37 159 -104 159 -196 -1 -102 -42 -161 -194 -279
-56 -43 -112 -90 -125 -104 l-24 -26 171 0 172 0 0 -70 0 -70 -311 0 -311 0 7
33 c19 88 70 147 255 297 153 123 180 155 180 210 0 42 -15 67 -50 85 -72 37
-167 2 -184 -69 -9 -35 -12 -37 -39 -32 -16 3 -50 6 -76 6 -70 0 -77 8 -57 68
26 79 94 133 191 155 50 11 195 6 236 -8z"/>
<path d="M18051 23692 c-1 -7 -6 -10 -11 -7 -15 9 -132 -48 -205 -100 -350
-249 -400 -703 -113 -1010 113 -121 251 -199 424 -241 96 -23 286 -23 387 0
285 65 500 250 585 503 22 66 26 95 26 193 -1 97 -5 128 -27 196 -34 103 -105
211 -188 289 -60 56 -158 125 -131 92 7 -7 9 -17 5 -21 -4 -4 3 -9 15 -13 22
-5 22 -6 4 -19 -16 -11 -26 -9 -68 11 -92 44 -333 108 -284 75 13 -9 13 -10 0
-10 -10 0 -11 -3 -4 -8 6 -4 12 -35 13 -69 l2 -63 -86 0 -86 0 2 74 c1 40 -1
79 -6 86 -5 8 -24 10 -64 6 -56 -7 -152 -23 -182 -32 -11 -3 -15 2 -15 18 1
13 5 26 10 29 5 4 6 13 3 20 -4 11 -6 11 -6 1z m429 -513 c85 -38 132 -100
132 -175 0 -55 -25 -99 -80 -141 l-42 -32 29 -6 c44 -9 107 -69 126 -120 34
-87 -8 -192 -100 -253 -65 -43 -114 -56 -211 -55 -85 1 -142 19 -204 63 -32
23 -75 89 -85 132 -7 26 -6 26 52 33 32 3 70 9 85 11 23 5 29 1 41 -29 16 -37
57 -74 95 -84 34 -8 94 12 122 42 17 18 25 40 28 78 4 46 1 57 -23 85 -31 37
-83 54 -138 45 l-39 -6 7 54 c4 30 9 57 11 60 2 4 23 10 47 13 73 11 116 67
96 126 -30 85 -168 75 -200 -15 -7 -19 -18 -34 -24 -31 -6 2 -42 7 -78 11 -60
7 -67 10 -67 29 0 11 13 44 29 71 32 56 97 99 173 115 60 13 164 3 218 -21z"/>
<path d="M21570 23613 c-110 -40 -222 -115 -303 -203 -111 -120 -165 -246
-174 -405 -5 -84 -2 -113 16 -180 74 -270 301 -470 601 -531 101 -20 289 -15
385 11 145 40 287 125 384 232 120 131 176 270 175 438 0 117 -18 185 -76 298
-43 83 -154 206 -218 241 l-35 19 20 -23 20 -23 -23 12 c-22 12 -23 11 -12 -8
6 -12 15 -21 21 -21 6 0 7 -5 3 -11 -5 -8 -9 -8 -14 1 -4 6 -10 12 -13 11 -4
0 -31 11 -62 24 -81 36 -174 65 -220 68 l-40 2 3 -62 c3 -52 1 -64 -13 -69
-13 -6 -14 -9 -3 -16 8 -6 -15 -7 -62 -3 -41 4 -79 11 -83 15 -5 4 -7 40 -5
79 l3 71 -45 0 c-25 0 -80 -7 -123 -15 -92 -18 -97 -18 -77 -5 10 7 11 10 2
10 -8 0 -11 9 -8 25 5 26 2 28 -24 18z m430 -848 c0 -201 1 -368 3 -372 1 -5
-38 -9 -88 -11 l-90 -3 2 266 c1 147 -1 265 -5 263 -4 -2 -45 -22 -92 -45
-135 -66 -130 -67 -130 14 l0 68 48 17 c65 23 135 72 180 124 37 43 37 43 105
44 l67 0 0 -365z"/>
<path d="M16608 22670 c-94 -40 -172 -92 -246 -164 -288 -276 -293 -683 -12
-967 176 -178 390 -258 655 -246 352 17 631 211 743 519 24 65 27 88 27 203 0
102 -4 142 -19 185 -51 150 -149 286 -265 368 -53 38 -61 42 -50 21 11 -20 14
-47 5 -57 -2 -1 -30 11 -62 27 -74 36 -172 69 -234 77 l-48 6 -3 -46 c-3 -36
-1 -46 11 -46 10 0 11 -3 3 -8 -6 -4 -15 -20 -18 -35 -6 -23 -12 -28 -29 -23
-11 3 -50 6 -86 6 -36 0 -60 4 -55 8 6 4 9 40 7 85 l-4 78 -61 -7 c-34 -3 -91
-12 -125 -20 -35 -8 -68 -12 -73 -8 -15 9 -10 46 9 60 27 21 2 16 -70 -16z
m572 -701 c3 -140 8 -253 13 -251 4 1 27 2 52 2 l45 0 0 -65 0 -65 -55 0 -55
0 0 -80 0 -80 -85 0 -85 0 0 64 c0 103 14 96 -196 96 l-184 0 0 69 0 68 195
244 194 244 63 5 c35 3 70 5 78 4 13 -1 16 -39 20 -255z"/>
<path d="M16903 21860 c-51 -65 -93 -122 -93 -127 0 -11 113 -16 163 -7 l38 6
-2 124 c-2 68 -6 124 -9 124 -3 -1 -47 -54 -97 -120z"/>
<path d="M19900 22409 c-1309 -73 -2390 -984 -2565 -2163 -89 -602 73 -1221
450 -1725 99 -132 133 -170 258 -294 686 -676 1716 -954 2712 -732 645 144
1237 523 1619 1038 333 448 500 1016 457 1552 -85 1050 -865 1927 -1981 2229
-285 77 -639 112 -950 95z m550 -144 c628 -86 1202 -388 1574 -828 27 -32 46
-60 43 -64 -4 -3 -9 2 -13 11 -3 9 -10 16 -15 16 -6 0 -5 -10 2 -21 9 -17 8
-20 -3 -17 -7 3 -14 13 -14 24 -3 36 -6 39 -13 9 l-6 -30 -1925 0 -1925 0 3
24 c2 20 0 22 -13 11 -9 -7 -14 -18 -11 -25 2 -7 -8 -11 -30 -10 -30 1 -33 -2
-28 -20 3 -12 2 -15 -3 -8 -6 8 -16 1 -32 -23 -13 -19 -28 -34 -33 -34 -11 0
20 44 96 135 413 496 1049 810 1761 869 102 8 474 -4 585 -19z m1690 -976 c0
-3 -7 -6 -15 -6 -8 0 -12 4 -9 8 3 5 -3 21 -12 36 -17 28 -16 28 9 -2 15 -16
26 -33 27 -36z m-1706 -3435 c19 -7 22 -74 6 -105 -9 -17 -7 -19 17 -19 23 0
25 2 13 11 -13 9 -13 10 0 6 8 -2 14 -10 12 -17 -2 -7 3 -17 10 -23 10 -6 9
-7 -4 -3 -9 2 -32 1 -49 -4 -59 -17 -341 -32 -466 -25 l-122 7 -3 81 -3 82
180 -3 c147 -2 268 3 382 17 6 0 18 -2 27 -5z"/>
<path d="M21987 21449 c7 -7 15 -10 18 -7 3 3 -2 9 -12 12 -14 6 -15 5 -6 -5z"/>
<path d="M18125 21420 c-3 -5 -1 -10 4 -10 6 0 11 5 11 10 0 6 -2 10 -4 10 -3
0 -8 -4 -11 -10z"/>
<path d="M20438 17713 c7 -3 16 -2 19 1 4 3 -2 6 -13 5 -11 0 -14 -3 -6 -6z"/>
<path d="M24502 21469 c-7 -12 -11 -24 -7 -27 7 -8 25 17 25 36 0 17 -3 15
-18 -9z"/>
<path d="M15855 21172 c-177 -70 -332 -209 -408 -364 -102 -208 -102 -414 -1
-615 94 -188 293 -340 522 -400 139 -37 326 -37 463 0 464 123 715 559 552
960 -35 87 -103 186 -172 249 -55 51 -148 115 -124 86 6 -7 11 -25 11 -40 0
-25 -2 -26 -27 -15 -14 6 -31 14 -37 19 -22 16 -149 59 -216 73 -75 16 -115
19 -88 7 10 -5 15 -22 15 -55 0 -35 -4 -47 -15 -48 -10 0 -11 -2 -2 -6 6 -2
12 -11 12 -18 0 -7 6 -16 13 -18 17 -7 -67 -6 -133 1 -51 7 -55 9 -53 32 1 14
3 48 4 75 l3 50 -75 -2 c-42 -1 -102 -8 -134 -17 -64 -16 -75 -15 -71 12 2 9
-2 20 -8 24 -7 5 -6 8 4 8 8 0 24 7 34 15 29 22 10 18 -69 -13z m563 -523 l-3
-70 -163 -1 c-183 0 -160 11 -181 -86 l-9 -44 36 9 c195 44 362 -74 362 -256
0 -82 -30 -151 -88 -203 -56 -51 -90 -66 -166 -77 -130 -19 -246 16 -311 92
-32 37 -65 111 -54 121 2 2 42 7 89 10 l85 7 18 -40 c43 -95 184 -94 227 1 37
81 19 170 -42 208 -45 29 -134 24 -179 -9 -28 -21 -38 -23 -105 -16 -41 4 -74
8 -74 10 0 4 75 351 85 393 l5 22 236 0 235 0 -3 -71z"/>
<path d="M15182 19625 c0 -16 2 -22 5 -12 2 9 2 23 0 30 -3 6 -5 -1 -5 -18z"/>
<path d="M15476 18991 c-4 -7 -5 -15 -2 -18 9 -9 19 4 14 18 -4 11 -6 11 -12
0z"/>
<path d="M23155 18520 c-3 -5 -1 -10 4 -10 6 0 11 5 11 10 0 6 -2 10 -4 10 -3
0 -8 -4 -11 -10z"/>
<path d="M22715 18060 c-3 -6 1 -7 9 -4 18 7 21 14 7 14 -6 0 -13 -4 -16 -10z"/>
<path d="M20640 17200 c-18 -12 -2 -12 25 0 13 6 15 9 5 9 -8 0 -22 -4 -30 -9z"/>
<path d="M18326 17031 c-4 -5 -2 -12 3 -15 5 -4 12 -2 15 3 4 5 2 12 -3 15 -5
4 -12 2 -15 -3z"/>
<path d="M18050 16963 c0 -5 -14 -24 -30 -42 -17 -17 -25 -31 -18 -31 16 0 63
68 54 77 -3 3 -6 2 -6 -4z"/>
<path d="M18058 16925 c-19 -26 -22 -35 -10 -35 7 0 34 51 29 56 -1 1 -10 -8
-19 -21z"/>
<path d="M14976 19083 c9 -52 14 -54 14 -5 0 23 -5 42 -10 42 -7 0 -8 -14 -4
-37z"/>
<path d="M15052 18600 c0 -14 2 -19 5 -12 2 6 2 18 0 25 -3 6 -5 1 -5 -13z"/>
<path d="M16331 18637 c-52 -18 -76 -58 -76 -127 0 -69 21 -105 80 -134 35
-17 42 -18 78 -5 56 20 79 54 79 121 1 63 -16 103 -52 129 -35 24 -70 29 -109
16z"/>
<path d="M22608 17290 c-40 -31 -53 -97 -53 -260 1 -124 4 -151 22 -191 24
-55 65 -77 116 -63 25 7 38 20 57 59 23 46 25 61 25 195 0 211 -27 280 -110
280 -18 0 -44 -9 -57 -20z"/>
<path d="M19010 16589 c-67 -14 -93 -85 -54 -146 29 -46 140 -48 177 -2 9 12
17 38 17 59 0 21 -8 47 -17 59 -22 27 -76 40 -123 30z"/>
<path d="M18983 16270 c-40 -17 -65 -69 -60 -124 4 -42 10 -55 42 -84 35 -32
41 -34 92 -30 41 4 60 11 80 30 47 48 47 138 -1 186 -19 19 -37 26 -78 29 -29
1 -63 -1 -75 -7z"/>
<path d="M20913 16519 c-42 -12 -69 -49 -77 -103 -19 -123 66 -209 165 -169
105 42 97 224 -11 267 -22 9 -41 16 -43 15 -1 0 -16 -5 -34 -10z"/>
<path d="M18080 15570 c0 -6 7 -10 15 -10 8 0 15 2 15 4 0 2 -7 6 -15 10 -8 3
-15 1 -15 -4z"/>
<path d="M18125 15380 c3 -5 8 -10 11 -10 2 0 4 5 4 10 0 6 -5 10 -11 10 -5 0
-7 -4 -4 -10z"/>
<path d="M16640 13024 c0 -14 3 -14 15 -4 8 7 15 14 15 16 0 2 -7 4 -15 4 -8
0 -15 -7 -15 -16z"/>
<path d="M29180 6094 l-25 -15 25 7 c28 7 35 12 29 18 -2 2 -15 -2 -29 -10z"/>
<path d="M28918 6003 c7 -3 16 -2 19 1 4 3 -2 6 -13 5 -11 0 -14 -3 -6 -6z"/>
<path d="M11453 5943 c9 -2 23 -2 30 0 6 3 -1 5 -18 5 -16 0 -22 -2 -12 -5z"/>
</g>
</svg>
